<!DOCTYPE svg PUBLIC "-//W3C//DTD SVG 1.1//EN" "http://www.w3.org/Graphics/SVG/1.1/DTD/svg11.dtd">
<!-- Uploaded to: SVG Repo, www.svgrepo.com, Transformed by: SVG Repo Mixer Tools -->
<svg height="800px" width="800px" version="1.1" id="Layer_1" xmlns="http://www.w3.org/2000/svg" xmlns:xlink="http://www.w3.org/1999/xlink" viewBox="0 0 512.001 512.001" xml:space="preserve" fill="#000000" transform="rotate(0)">
<g id="SVGRepo_bgCarrier" stroke-width="0"/>
<g id="SVGRepo_tracerCarrier" stroke-linecap="round" stroke-linejoin="round"/>
<g id="SVGRepo_iconCarrier"> <path style="fill:#D9D9DB;" d="M15.414,496.523L15.414,496.523c8.339,8.339,21.861,8.339,30.2,0l202.219-202.219l-30.2-30.2 L15.414,466.323C7.075,474.662,7.075,488.184,15.414,496.523z"/> <path style="fill:#f43f5e;" d="M431.276,303.194c-62.379,41.701-147.52,35.012-202.597-20.064 c-54.853-54.853-61.71-139.528-20.57-201.836l45.118-45.118C315.606-5.525,400.749,1.163,455.826,56.24 c54.853,54.853,61.71,139.528,20.57,201.836L431.276,303.194z"/> <g> <path style="fill:#EF8990;" d="M342.764,302.151c-49.699,0-94.12-22.577-123.579-58.031c-21.749-25.876-34.041-57-36.876-88.81 c-4.087,45.731,11.367,92.879,46.371,127.883c55.077,55.077,140.218,61.764,202.597,20.064l45.119-45.119 c19.713-29.855,28.364-64.844,26.036-99.229C493.773,239.442,425.595,302.151,342.764,302.151z"/> <path style="fill:#EF8990;" d="M433.725,305.642L206.296,78.211c-5.925-5.925-5.925-15.53,0-21.455l23.029-23.029 c5.925-5.925,15.53-5.925,21.455,0l227.43,227.43c5.925,5.925,5.925,15.53,0,21.455l-23.029,23.029 C449.255,311.567,439.65,311.567,433.725,305.642z"/> <circle style="fill:#EF8990;" cx="394.091" cy="81.324" r="24.345"/> <circle style="fill:#EF8990;" cx="348.076" cy="73.788" r="7.762"/> </g> <path d="M487.571,257.419c15.994-26.424,24.429-56.586,24.429-87.726C512.001,76.123,435.878,0,342.309,0 c-13.762,0-27.454,1.653-40.699,4.914c-4.95,1.218-7.975,6.22-6.756,11.17c1.22,4.95,6.219,7.974,11.17,6.756 c11.802-2.906,24.011-4.379,36.286-4.379c83.39,0,151.232,67.842,151.232,151.232c0,26.22-6.695,51.663-19.45,74.245L246.635,16.481 c-3.605-3.605-9.449-3.605-13.053,0l-44.484,44.484c-3.605,3.605-3.605,9.449,0,13.053l7.819,7.819 c-3.612,5.973-6.868,12.183-9.705,18.537c-0.254,0.567-0.442,1.146-0.575,1.729c-9.212,21.192-14.019,44.121-14.019,67.589 c0,35.161,10.593,68.525,29.971,96.469L8.943,459.804c-11.923,11.925-11.923,31.328,0,43.254c5.963,5.961,13.794,8.943,21.627,8.943 c7.832,0,15.664-2.981,21.627-8.943l193.721-193.721c29.774,24.608,73.345,30.05,96.391,30.05c31.156,0,61.298-8.439,87.722-24.434 l7.953,7.953c5.049,5.049,10.175,2.877,13.053,0l44.484-44.484c3.605-3.605,3.605-9.449,0-13.053L487.571,257.419z M39.144,490.003 c-4.728,4.727-12.42,4.728-17.146,0c-4.727-4.727-4.727-12.419,0-17.147l192.013-192.012c5.271,6.053,11.008,11.769,17.184,17.108 L39.144,490.003z M342.309,320.925c-56.156,0-86.005-26.599-91.9-31.115c-37.707-28.895-59.331-72.676-59.331-120.116 c0-26.205,6.702-51.659,19.455-74.241l206.016,206.016C393.967,314.223,368.542,320.925,342.309,320.925z M208.677,67.492 l31.431-31.43l235.831,235.831l-31.43,31.431L208.677,67.492z"/> </g>
</svg>